<svg xmlns="http://www.w3.org/2000/svg" width="197.851" height="39.161" viewBox="0 0 197.851 39.161">
  <path id="Union_17" data-name="Union 17" d="M168.566,39.161V29.586h1.079v1.2a2.741,2.741,0,0,1,2.429-1.3,3.077,3.077,0,0,1,3.081,3.329,3.125,3.125,0,0,1-3.081,3.378,2.808,2.808,0,0,1-2.429-1.3v4.278Zm1.079-6.34a2.214,2.214,0,1,0,4.408-.013,2.195,2.195,0,0,0-2.2-2.393A2.231,2.231,0,0,0,169.646,32.821ZM9.807,38.632a.612.612,0,0,1-.456-.342.939.939,0,0,1-.114-.8l.229-.571-.114-1.71c-.228.113-.456.228-1.026.455-.456.114-.913.343-1.369.456-.684.114-1.255.229-1.939.342H3.877a5.707,5.707,0,0,1-1.368-.228,3.937,3.937,0,0,1-1.369-.8A2.266,2.266,0,0,1,.229,34.07,3.618,3.618,0,0,1,0,32.474a7.841,7.841,0,0,1,.229-1.483,10.559,10.559,0,0,1,1.14-2.965,24.24,24.24,0,0,1,3.649-4.79,15.758,15.758,0,0,1,3.991-2.965,7.756,7.756,0,0,1,3.307-1.026h.229a13.336,13.336,0,0,1-1.255-2.851,3.805,3.805,0,0,1,.571-3.649,6.537,6.537,0,0,1,5.018-2.509h.342a5.557,5.557,0,0,1,5.816,5.474,5.663,5.663,0,0,1-2.281,4.9,6.385,6.385,0,0,1-3.307,1.14h-.342a4.938,4.938,0,0,1-3.877-1.71,2.239,2.239,0,0,0-.8.113A11.011,11.011,0,0,0,9.579,21.3,16.738,16.738,0,0,0,5.93,24.149,17.351,17.351,0,0,0,2.623,28.6,15.553,15.553,0,0,0,1.6,31.219a4.4,4.4,0,0,0-.114,2.395,1.848,1.848,0,0,0,.456.8,4.989,4.989,0,0,0,.8.455,5.051,5.051,0,0,0,1.482.229h.456a6.893,6.893,0,0,0,1.711-.229,3.366,3.366,0,0,0,1.14-.228l.342-.114c.684-.113.913-.228,1.026-.228V33.043c-.228,0-.342.114-.57.114a6.539,6.539,0,0,1-1.14.228c-.342,0-.456-.228-.456-.342,0-.342.114-.456,1.255-.912l2.85-1.141.8-.342.456-.455.228-.229a4.779,4.779,0,0,0-.8-.57l-.455-.229-.229-.114c-.228,0-.342-.113-.57-.113a2.83,2.83,0,0,0-.913-.114,4.905,4.905,0,0,0-.57.114H8.553l-.342-.229c-.228.114-.342.342-.571.456l-.8.571-.8.8-.229.342-.342.684v.571a.86.86,0,0,1,.228.455l.343.456v.114a.112.112,0,0,1,.113.114c0,.113.114.113.114.228a.453.453,0,0,1-.114.571H5.93c-.114,0-.342-.229-.342-.229l-.114-.114H5.359l-.113-.113-.456-.456v-.114l-.456-.912v-.913c.114-.114.114-.114.114-.229.113-.228.228-.57.342-.8l.342-.456a.4.4,0,0,1,.114-.229l.455-.456.571-.455a.112.112,0,0,1,.114-.114l.684-.456A1.749,1.749,0,0,1,9.009,27.8v.113a.4.4,0,0,1,.228-.113V25.86l.114-.114v-.114l.228-.113a1.219,1.219,0,0,1-.57-.343v-.342c.114-.342.342-.228.8-.228a4.715,4.715,0,0,1,1.14.114l2.281.228H14.6l2.166-.114h.228a8.015,8.015,0,0,1,.913.342l.571.229a.111.111,0,0,0,.113.114c1.255.8,1.6,1.026,1.482,1.368l.114-.228c0-.229.342-.342,1.026-.8l.8-.456c.229-.114.343-.229.571-.229s.456-.113.684-.113h.229c.57-.114,1.14-.229,1.824-.342h.342c.456-.114,1.026-.114,1.482-.229l.571-.113c.342,0,.684-.114.912-.114h.114c.114-.114.114-.114.228-.114h.8a2.277,2.277,0,0,1,.913-.228l.342.228c.114.229,0,.342-.114.456l.343.228v.229l.228.113.342,5.816a3.436,3.436,0,0,1,.913.456,4.876,4.876,0,0,1,1.6,1.482,3.591,3.591,0,0,1,.57,1.141,1.613,1.613,0,0,1,.229.684v.912l-.114.343c-.114.113-.114.228-.229.342h.456c.456-.114,1.027-.114,1.825-.229.8-.228,1.6-.342,2.281-.57a16.876,16.876,0,0,0,2.508-1.14,9.8,9.8,0,0,0,2.281-2.053,8.223,8.223,0,0,0,1.6-2.965,9.8,9.8,0,0,0,.571-3.649,17.157,17.157,0,0,0-1.6-6.956,14.891,14.891,0,0,0-3.535-4.676,9.319,9.319,0,0,0-1.939-1.255,6.579,6.579,0,0,0-1.6-.57c-.342,0-.684-.114-.913-.114a7.522,7.522,0,0,1-1.939,2.737,8.039,8.039,0,0,1-4.676,1.711h-.342c-3.649,0-6.158-2.395-7.526-7.412a5.617,5.617,0,0,1,.912-5.017A8.466,8.466,0,0,1,29.421,1h.456A7.352,7.352,0,0,1,37.4,8.412a6.652,6.652,0,0,1-.229,2.623h.8a5.981,5.981,0,0,1,1.939.456,6.417,6.417,0,0,1,2.281,1.255A15.418,15.418,0,0,1,46.3,17.877a16.307,16.307,0,0,1,1.368,3.535,16.855,16.855,0,0,1,.571,3.991,11.923,11.923,0,0,1-.571,4.1,9.477,9.477,0,0,1-1.824,3.535,7.993,7.993,0,0,1-2.737,2.395,13.284,13.284,0,0,1-2.965,1.14,16.435,16.435,0,0,1-2.509.456,5.54,5.54,0,0,1-1.368.114h-.571c-.456,0-.8-.114-1.14-.114a7.353,7.353,0,0,1-1.026.912A4.014,4.014,0,0,1,32.5,38.4a2.215,2.215,0,0,1-.912.114h-.114a4.2,4.2,0,0,1-1.939-.571l-.342-.113c0,.113-.114.113-.342.113a34.081,34.081,0,0,1-3.877-.57c-1.369-.342-2.623-.571-3.307-.8l-.228.228-1.14.114-.229-.114h-.228l-2.166.343c-1.369.228-3.193.455-5.132.8-.456.114-1.027.229-1.482.343a.421.421,0,0,1-.342.113h-.114l-.229-.342.114.342-.228.114a.419.419,0,0,1-.342.114ZM25.43,34.754a17.953,17.953,0,0,1,1.824.8l2.623,1.254a3.033,3.033,0,0,0,1.369.343,2.058,2.058,0,0,0,1.368-.343,3.475,3.475,0,0,0,.913-.912c.113-.229.228-.342.342-.571a.4.4,0,0,0,.113-.228l.114-.229v-.113a.112.112,0,0,0,.114-.114v-.114a.859.859,0,0,0-.114-.455,3.4,3.4,0,0,0-.456-.913A3.118,3.118,0,0,0,32.5,31.9a4.979,4.979,0,0,0-1.026-.57h-.228a.418.418,0,0,1-.456-.456.355.355,0,0,1,.113-.229l-.342-5.131L20.526,27.8l.8,7.868a19.722,19.722,0,0,1,3.535.571c.456.114,1.026.228,1.482.342-.57-.342-1.14-.684-1.482-.913-.57-.455-.684-.57-.684-.684l.114-.342a.378.378,0,0,1,.287-.124A3.5,3.5,0,0,1,25.43,34.754Zm-15.623-7.3h.57a1.456,1.456,0,0,1,.685.113c.113,0,.228.114.342.114l.456.228.228.114a6.072,6.072,0,0,1,1.14.684l.342.342c.114,0,.229.114.229.343v.455c0,.114-.114.114-.114.229s-.114.228-.229.342l-.342.342a4.988,4.988,0,0,0-.8.684l-.912.685-.913.342c-.228.113-.456.113-.684.228a12,12,0,0,1,.342,2.281c0,.342.114.684.114,1.14l.113.684v.229h.114c.456-.114,1.026-.229,1.6-.342,1.824-.229,3.763-.456,5.7-.684a9.832,9.832,0,0,1,1.711-.114l-.913-7.983-8.78-1.482Zm8.78-.571-.684-.342h-.114c0,.114-.113,0-.113,0l-.8-.342c-.114-.114-.342-.114-.456-.229h-.8a4.267,4.267,0,0,1-1.255.114ZM13.228,16.167c.342,3.192,1.482,4.333,4.1,4.333a5.629,5.629,0,0,0,2.851-.571c1.026-.684,1.14-1.824.684-4.1,0-.456-.912-4.333-3.763-4.333h-.228C14.027,11.948,12.886,13.316,13.228,16.167ZM24.86,8.754c.456,4.447,1.824,6.158,5.36,6.158h.114c1.939,0,3.193-.342,3.991-1.026,1.026-.913,1.254-2.624.684-5.474-.114-.684-1.255-6.158-5.018-6.158H29.65C25.886,2.824,24.4,4.763,24.86,8.754ZM102.8,37.774l.866-3.188h1.184l-1.327,3.188Zm41.618-4.064a2.7,2.7,0,0,1,1.943-2.56,2.371,2.371,0,0,1-.711-1.659,1.927,1.927,0,0,1,2.181-1.837,1.835,1.835,0,0,1,2.038,1.931h-1.078a.944.944,0,0,0-1.007-1.043.959.959,0,0,0-1.055.949c0,.486.273.888.853,1.5l2.465,2.477c.071-.107.142-.213.213-.332l.805-1.351h1.162l-.972,1.683a8.705,8.705,0,0,1-.474.746l1.86,1.86h-1.409l-1.079-1.09a3.7,3.7,0,0,1-2.844,1.232C145.589,36.221,144.417,35.239,144.417,33.709Zm1.078-.035a1.662,1.662,0,0,0,1.813,1.623,2.711,2.711,0,0,0,2.133-1.019l-2.429-2.441C145.981,32.228,145.495,32.845,145.495,33.674Zm45.6-.853a3.09,3.09,0,0,1,3.211-3.342,2.976,2.976,0,0,1,3.117,3.1,5.905,5.905,0,0,1-.035.652H192.2a2.041,2.041,0,0,0,2.109,2.039,1.785,1.785,0,0,0,1.825-1.2h1.161a2.919,2.919,0,0,1-2.986,2.11A3.128,3.128,0,0,1,191.093,32.821Zm1.114-.463h4.1a1.906,1.906,0,0,0-2.05-1.967A2.011,2.011,0,0,0,192.208,32.359Zm-13.118.463a3.283,3.283,0,1,1,6.566,0,3.22,3.22,0,0,1-3.33,3.365A3.153,3.153,0,0,1,179.089,32.821Zm1.1,0a2.139,2.139,0,0,0,2.133,2.417,2.2,2.2,0,0,0,2.227-2.417,2.182,2.182,0,0,0-2.192-2.406A2.153,2.153,0,0,0,180.192,32.821Zm-58.883-.013a3.077,3.077,0,0,1,3.081-3.329,2.694,2.694,0,0,1,2.417,1.292V29.586h1.09v6.493h-1.09V34.871a2.711,2.711,0,0,1-2.429,1.316A3.123,3.123,0,0,1,121.309,32.809Zm1.1,0a2.209,2.209,0,1,0,4.4.013,2.225,2.225,0,0,0-2.2-2.406A2.192,2.192,0,0,0,122.411,32.809Zm-8.449.013a3.09,3.09,0,0,1,3.212-3.342,2.976,2.976,0,0,1,3.116,3.1,5.907,5.907,0,0,1-.035.652h-5.19a2.041,2.041,0,0,0,2.11,2.039,1.784,1.784,0,0,0,1.824-1.2h1.162a2.921,2.921,0,0,1-2.986,2.11A3.128,3.128,0,0,1,113.962,32.821Zm1.114-.463h4.1a1.906,1.906,0,0,0-2.05-1.967A2.011,2.011,0,0,0,115.076,32.359Zm-23.25.463a3.086,3.086,0,0,1,3.164-3.342,2.822,2.822,0,0,1,3,2.192H96.826a1.769,1.769,0,0,0-1.836-1.28c-1.185,0-2.062.841-2.062,2.43,0,1.611.877,2.452,2.062,2.452a1.741,1.741,0,0,0,1.836-1.28h1.162a2.889,2.889,0,0,1-3,2.192A3.093,3.093,0,0,1,91.826,32.821Zm-7.347,0a3.09,3.09,0,0,1,3.211-3.342,2.977,2.977,0,0,1,3.117,3.1,5.692,5.692,0,0,1-.036.652h-5.19a2.041,2.041,0,0,0,2.11,2.039,1.785,1.785,0,0,0,1.825-1.2h1.161a2.92,2.92,0,0,1-2.986,2.11A3.128,3.128,0,0,1,84.479,32.821Zm1.113-.463h4.1a1.906,1.906,0,0,0-2.05-1.967A2.011,2.011,0,0,0,85.593,32.359Zm-23.865.463a3.283,3.283,0,1,1,6.565,0,3.22,3.22,0,0,1-3.33,3.365A3.152,3.152,0,0,1,61.727,32.821Zm1.1,0a2.139,2.139,0,0,0,2.133,2.417,2.2,2.2,0,0,0,2.228-2.417A2.182,2.182,0,0,0,65,30.416,2.153,2.153,0,0,0,62.829,32.821Zm-10.25-.878a4.072,4.072,0,0,1,4.124-4.23,3.888,3.888,0,0,1,3.828,2.5H59.239A2.6,2.6,0,0,0,56.7,28.661a3,3,0,0,0-3.021,3.282A3,3,0,0,0,56.7,35.214a2.608,2.608,0,0,0,2.536-1.54H60.53A3.885,3.885,0,0,1,56.7,36.15,4.052,4.052,0,0,1,52.579,31.944Zm134.5,4.135V29.586h1.078v1.055a2.187,2.187,0,0,1,2.1-1.174v1.114h-.284c-1.03,0-1.813.463-1.813,1.967v3.531Zm-10.5,0V27.311h1.078v8.769Zm-10.3,0-1.54-2.417-1.481,2.417h-1.126l2.1-3.223-2.1-3.271h1.22l1.541,2.406,1.469-2.406h1.126L165.4,32.8l2.1,3.282Zm-9.468,0V27.808h4.444V28.7H157.89v2.76h3.01v.889h-3.01v2.844h3.366v.888Zm-17.917,0V32.406c0-1.327-.723-2-1.813-2s-1.861.687-1.861,2.085v3.59h-1.078V29.586h1.078v.924a2.4,2.4,0,0,1,2.086-1.043,2.519,2.519,0,0,1,2.654,2.785v3.827Zm-9.172,0V29.586H130.8v1.055a2.188,2.188,0,0,1,2.1-1.174v1.114h-.284c-1.031,0-1.814.463-1.814,1.967v3.531Zm-20.477,0V27.82h1.078V35.2h2.892v.877Zm-7.785,0c-1.15,0-1.8-.473-1.8-1.778V30.475h-.842v-.889h.842V27.95h1.078v1.635h1.695v.889h-1.695V34.3c0,.64.238.866.9.866h.794v.912Zm-19.41,0V32.406c0-1.327-.724-2-1.813-2s-1.86.687-1.86,2.085v3.59H77.3V29.586h1.078v.924a2.4,2.4,0,0,1,2.085-1.043,2.52,2.52,0,0,1,2.655,2.785v3.827Zm-7.584,0V32.406c0-1.327-.723-2-1.813-2s-1.86.687-1.86,2.085v3.59H69.714V29.586h1.078v.924a2.4,2.4,0,0,1,2.086-1.043,2.519,2.519,0,0,1,2.654,2.785v3.827ZM25.886,34.64a1.71,1.71,0,0,1-1.14-.228l-.114-.342c0-.343.342-.343.8-.456.114,0,.229-.114.456-.114.342-.114,1.255-.228,2.395-.57a16.254,16.254,0,0,0,2.395-.685c.342-.113.455-.228.57-.228l.114-.114c.114,0,.228-.113.342-.113h.114c.228,0,.342.228.342.455-.114.229-.114.342-.229.456-.228.114-.455.342-.8.571a9.551,9.551,0,0,1-2.394.912,11.512,11.512,0,0,1-2.624.456Zm163.07-11.606a1.755,1.755,0,0,1-1.71-1.71V1.71A1.755,1.755,0,0,1,188.956,0h7.185a1.754,1.754,0,0,1,1.71,1.71V21.325a1.672,1.672,0,0,1-1.71,1.71Zm4.791-1.368a1,1,0,0,0,1.026.912,1.1,1.1,0,0,0,1.026-.912.866.866,0,0,0-.308-.638,1.091,1.091,0,0,0-.718-.274A1,1,0,0,0,193.747,21.667Zm-3.536-4.1a2.483,2.483,0,0,0,2.623,2.508,2.431,2.431,0,0,0,2.624-2.508,2.269,2.269,0,0,0-.8-1.825l-.684.685a1.61,1.61,0,0,1,.57,1.14,1.564,1.564,0,0,1-1.711,1.482c-.826,0-1.71-.39-1.71-1.482a1.606,1.606,0,0,1,.57-1.14l-.684-.685A2.269,2.269,0,0,0,190.211,17.562Zm.114-4.676a2.625,2.625,0,1,0,2.623-2.509A2.571,2.571,0,0,0,190.325,12.886Zm.113-3.421h4.9V8.78h-2.623c-1.014,0-1.6-.457-1.6-1.254,0-.949.756-1.027,1.6-1.027h2.623V5.588h-2.737c-1,0-1.483-.41-1.483-1.255,0-.948.766-1.027,1.483-1.027h2.737V2.395h-2.851c-.988,0-2.166.317-2.166,1.824a1.783,1.783,0,0,0,.912,1.482,1.662,1.662,0,0,0,0,2.965h-.8ZM146.081,13c0-4.675,3.192-8.1,7.754-8.1,4.447,0,7.754,3.421,7.754,8.1s-3.193,8.1-7.754,8.1C149.387,21.1,146.081,17.675,146.081,13Zm1.939,0c0,3.421,2.281,6.272,5.816,6.272s5.816-2.851,5.816-6.272-2.167-6.272-5.816-6.272C150.3,6.727,148.019,9.579,148.019,13ZM138.1,17.105V7.069H134.9V5.245H138.1V.8h1.939V5.245h4.219V7.069h-4.219V17.105a1.949,1.949,0,0,0,2.052,2.166,5.1,5.1,0,0,0,2.167-.571l.113,1.825a8.959,8.959,0,0,1-2.508.57C139.124,21.1,138.1,19.386,138.1,17.105Zm-26.913,0V7.069h-3.193V5.245h3.193V.8h1.939V5.245h4.219V7.069h-4.219V17.105a1.95,1.95,0,0,0,2.053,2.166,5.1,5.1,0,0,0,2.166-.571l.114,1.825a8.973,8.973,0,0,1-2.509.57C112.211,21.1,111.185,19.386,111.185,17.105ZM92.255,13c0-4.561,3.079-8.1,7.3-8.1,4.448,0,6.843,3.649,6.843,7.185v1.368H94.08c0,1.711,1.14,5.816,5.588,5.816a5.644,5.644,0,0,0,4.9-2.737l1.482,1.255A7.238,7.238,0,0,1,99.668,21.1C95.22,21.1,92.255,17.789,92.255,13Zm1.939-1.368h10.377a5.062,5.062,0,0,0-5.017-5.018C95.449,6.614,94.194,10.833,94.194,11.632Zm79.14,6.271,1.711-1.254a4.712,4.712,0,0,0,4.219,2.508,3.075,3.075,0,0,0,3.307-2.85c0-4.22-8.666-1.255-8.666-7.07,0-2.965,2.623-4.448,5.018-4.448s4.219.913,5.132,2.851l-1.711,1.026A3.524,3.524,0,0,0,178.922,6.5c-1.369,0-3.079.913-3.079,2.508,0,4.106,8.666.913,8.666,7.185,0,3.193-2.508,4.789-5.245,4.789A6.523,6.523,0,0,1,173.334,17.9Zm-53.6-3.534V5.245h1.939v9.009c0,2.508.684,4.9,3.649,4.9,2.851,0,5.017-2.052,5.017-6.272V5.245h1.939V16.307h.114c0,1.14.114,3.534.114,4.333h-1.939c0-1.14-.114-2.394-.114-2.737h-.114a5.452,5.452,0,0,1-5.017,3.079C120.765,20.982,119.739,17.675,119.739,14.369ZM66.712,16.42c0-4.675,5.246-5.132,8.1-5.132h2.167v-.912c0-2.623-1.824-3.763-4.106-3.763a6.393,6.393,0,0,0-4.447,1.71l-1.14-1.368a8.352,8.352,0,0,1,5.587-2.167c3.535,0,5.816,1.711,5.816,5.588V14.14H78.8a48.379,48.379,0,0,0,.342,6.5H77.317a17.049,17.049,0,0,1-.228-2.508h-.114c-1.027,1.939-2.623,2.85-5.132,2.85S66.712,19.728,66.712,16.42Zm1.939-.113c0,1.939,1.711,2.85,3.308,2.85,4.1,0,5.132-2.737,5.132-5.245V12.885H75.037C71.843,12.885,68.65,13.684,68.65,16.307ZM52,12.885c0-4.676,3.193-8.1,7.754-8.1a7.022,7.022,0,0,1,5.474,2.624l-1.6,1.254a5.285,5.285,0,0,0-3.877-2.052c-3.535,0-5.816,2.85-5.816,6.271s2.167,6.272,5.816,6.272a4.868,4.868,0,0,0,3.877-2.166l1.482,1.368a6.625,6.625,0,0,1-5.359,2.623C55.309,20.982,52,17.561,52,12.885Zm113.123,7.755V9.579c0-1.14-.114-3.535-.114-4.333h1.939c0,1.14.114,2.395.114,2.737A5.133,5.133,0,0,1,171.738,4.9c.342,0,.684.114,1.14.114l-.229,1.939a2,2,0,0,0-.684-.114c-3.307,0-4.79,2.395-4.79,5.36v8.439Zm-81.763,0V9.579h-.114c0-1.14-.114-3.535-.114-4.333h1.939c0,1.14.114,2.395.114,2.737A5.135,5.135,0,0,1,89.861,4.9c.342,0,.684.114,1.14.114l-.228,1.939a1.7,1.7,0,0,0-.685-.114c-3.307,0-4.789,2.395-4.789,5.36v8.439Zm107.876-7.754a1.522,1.522,0,0,1,1.711-1.6,1.6,1.6,0,1,1-1.711,1.6Z" fill="#fff"/>
</svg>
