<?xml version="1.0" encoding="iso-8859-1"?>
<!-- Generator: Adobe Illustrator 19.0.0, SVG Export Plug-In . SVG Version: 6.00 Build 0)  -->
<svg version="1.1" id="Layer_1" xmlns="http://www.w3.org/2000/svg" xmlns:xlink="http://www.w3.org/1999/xlink" x="0px" y="0px"
	 viewBox="0 0 512 512" style="enable-background:new 0 0 512 512;" xml:space="preserve">
<g>
	<g>
		<path d="M176.407,457.761v7.412c0,25.82,21.007,46.827,46.827,46.827h65.529c25.82,0,46.827-21.007,46.827-46.827v-7.412H176.407z
			"/>
	</g>
</g>
<g>
	<g>
		<polygon points="221.755,188.703 230.972,250.931 240.79,250.931 240.79,188.703 		"/>
	</g>
</g>
<g>
	<g>
		<polygon points="271.207,188.703 271.207,250.931 281.025,250.931 290.241,188.703 		"/>
	</g>
</g>
<g>
	<g>
		<path d="M375.815,49.547C343.778,17.584,301.246,0,256.003,0c-0.133,0-0.274,0-0.407,0c-45.332,0.105-87.867,17.776-119.77,49.756
			c-31.903,31.98-49.472,74.557-49.472,119.89c0,44.792,17.298,87.042,48.707,118.968l2.464,2.5
			c19.911,20.983,30.866,48.894,30.866,78.689v11.208c-8.389,4.559-14.096,13.452-14.096,23.651v21.94
			c0,0.249,0.012,0.495,0.019,0.742h203.371c0.007-0.247,0.019-0.494,0.019-0.742v-21.94c0-10.2-5.707-19.093-14.096-23.651v-11.208
			c0-29.737,10.91-57.594,30.748-78.564l2.582-2.625c31.41-31.926,48.707-74.177,48.707-118.969
			C425.644,124.257,407.947,81.604,375.815,49.547z M307.269,281.349h-36.062v96.415H240.79v-96.415h-36.062l-18.227-123.063
			h138.995L307.269,281.349z M354.67,169.644c0-54.407-44.263-98.671-98.671-98.671V40.556c71.179,0,129.088,57.908,129.088,129.088
			H354.67z"/>
	</g>
</g>
<g>
</g>
<g>
</g>
<g>
</g>
<g>
</g>
<g>
</g>
<g>
</g>
<g>
</g>
<g>
</g>
<g>
</g>
<g>
</g>
<g>
</g>
<g>
</g>
<g>
</g>
<g>
</g>
<g>
</g>
</svg>
